<mxfile host="app.diagrams.net" agent="Mozilla/5.0 (X11; Ubuntu; Linux x86_64; rv:134.0) Gecko/20100101 Firefox/134.0" version="26.0.8">
  <diagram name="Page-1" id="xCgzi6WBr3MEWE80XN1B">
    <mxGraphModel dx="1605" dy="935" grid="1" gridSize="10" guides="1" tooltips="1" connect="1" arrows="1" fold="1" page="1" pageScale="1" pageWidth="3300" pageHeight="4681" math="0" shadow="0">
      <root>
        <mxCell id="0" />
        <mxCell id="1" parent="0" />
        <mxCell id="zFfVcb5Bz67hU0ADQ6C9-5" style="edgeStyle=orthogonalEdgeStyle;rounded=0;orthogonalLoop=1;jettySize=auto;html=1;exitX=0.5;exitY=1;exitDx=0;exitDy=0;entryX=0.5;entryY=0;entryDx=0;entryDy=0;" parent="1" source="zFfVcb5Bz67hU0ADQ6C9-3" target="zFfVcb5Bz67hU0ADQ6C9-4" edge="1">
          <mxGeometry relative="1" as="geometry" />
        </mxCell>
        <mxCell id="zFfVcb5Bz67hU0ADQ6C9-3" value="" style="ellipse;whiteSpace=wrap;html=1;aspect=fixed;fillColor=light-dark(#464a4e, #7d8c9b);strokeColor=#314354;fontColor=#ffffff;" parent="1" vertex="1">
          <mxGeometry x="862.13" width="50" height="50" as="geometry" />
        </mxCell>
        <mxCell id="zFfVcb5Bz67hU0ADQ6C9-4" value="کاربر روی گزینه انتخاب وکیل کلیک میکند" style="rounded=1;whiteSpace=wrap;html=1;fillColor=#f5f5f5;gradientColor=#b3b3b3;strokeColor=#666666;" parent="1" vertex="1">
          <mxGeometry x="827.13" y="100" width="120" height="60" as="geometry" />
        </mxCell>
        <mxCell id="zFfVcb5Bz67hU0ADQ6C9-10" style="edgeStyle=orthogonalEdgeStyle;rounded=0;orthogonalLoop=1;jettySize=auto;html=1;exitX=0.5;exitY=1;exitDx=0;exitDy=0;" parent="1" source="zFfVcb5Bz67hU0ADQ6C9-7" target="zFfVcb5Bz67hU0ADQ6C9-9" edge="1">
          <mxGeometry relative="1" as="geometry" />
        </mxCell>
        <mxCell id="zFfVcb5Bz67hU0ADQ6C9-7" value="لیستی از وکیل ها نمایش داده میشود" style="rounded=1;whiteSpace=wrap;html=1;fillColor=#f5f5f5;gradientColor=#b3b3b3;strokeColor=#666666;" parent="1" vertex="1">
          <mxGeometry x="615" y="260" width="120" height="60" as="geometry" />
        </mxCell>
        <mxCell id="zFfVcb5Bz67hU0ADQ6C9-9" value="کاربر وکیل موردنظر خود را انتخاب میکند" style="rounded=1;whiteSpace=wrap;html=1;fillColor=#f5f5f5;gradientColor=#b3b3b3;strokeColor=#666666;" parent="1" vertex="1">
          <mxGeometry x="615.0000000000001" y="370" width="120" height="60" as="geometry" />
        </mxCell>
        <mxCell id="zFfVcb5Bz67hU0ADQ6C9-15" style="edgeStyle=orthogonalEdgeStyle;rounded=0;orthogonalLoop=1;jettySize=auto;html=1;exitX=0.5;exitY=1;exitDx=0;exitDy=0;entryX=0.5;entryY=0;entryDx=0;entryDy=0;" parent="1" source="zFfVcb5Bz67hU0ADQ6C9-11" edge="1">
          <mxGeometry relative="1" as="geometry">
            <mxPoint x="790" y="940" as="targetPoint" />
          </mxGeometry>
        </mxCell>
        <mxCell id="zFfVcb5Bz67hU0ADQ6C9-11" value="کاربر موضوع مورد نظر خود را برای وکیل ارسال میکند" style="rounded=1;whiteSpace=wrap;html=1;fillColor=#f5f5f5;gradientColor=#b3b3b3;strokeColor=#666666;" parent="1" vertex="1">
          <mxGeometry x="730.0000000000001" y="830" width="120" height="60" as="geometry" />
        </mxCell>
        <mxCell id="zFfVcb5Bz67hU0ADQ6C9-27" value="" style="ellipse;whiteSpace=wrap;html=1;aspect=fixed;" parent="1" vertex="1">
          <mxGeometry x="912.13" y="1362.5" width="60" height="60" as="geometry" />
        </mxCell>
        <mxCell id="zFfVcb5Bz67hU0ADQ6C9-28" value="" style="ellipse;whiteSpace=wrap;html=1;aspect=fixed;fillColor=#647687;fontColor=#ffffff;strokeColor=#314354;" parent="1" vertex="1">
          <mxGeometry x="922.13" y="1372.5" width="40" height="40" as="geometry" />
        </mxCell>
        <mxCell id="zFfVcb5Bz67hU0ADQ6C9-29" value="" style="html=1;points=[];perimeter=orthogonalPerimeter;fillColor=strokeColor;direction=south;" parent="1" vertex="1">
          <mxGeometry x="540" y="200" width="680" height="5" as="geometry" />
        </mxCell>
        <mxCell id="zFfVcb5Bz67hU0ADQ6C9-30" style="edgeStyle=orthogonalEdgeStyle;rounded=0;orthogonalLoop=1;jettySize=auto;html=1;exitX=0.5;exitY=1;exitDx=0;exitDy=0;entryX=-0.378;entryY=0.495;entryDx=0;entryDy=0;entryPerimeter=0;" parent="1" source="zFfVcb5Bz67hU0ADQ6C9-4" target="zFfVcb5Bz67hU0ADQ6C9-29" edge="1">
          <mxGeometry relative="1" as="geometry" />
        </mxCell>
        <mxCell id="zFfVcb5Bz67hU0ADQ6C9-31" value="" style="endArrow=classic;html=1;rounded=0;exitX=0.511;exitY=0.792;exitDx=0;exitDy=0;exitPerimeter=0;entryX=0.566;entryY=-0.013;entryDx=0;entryDy=0;entryPerimeter=0;" parent="1" source="zFfVcb5Bz67hU0ADQ6C9-29" target="zFfVcb5Bz67hU0ADQ6C9-7" edge="1">
          <mxGeometry width="50" height="50" relative="1" as="geometry">
            <mxPoint x="850" y="420" as="sourcePoint" />
            <mxPoint x="900" y="370" as="targetPoint" />
          </mxGeometry>
        </mxCell>
        <mxCell id="zFfVcb5Bz67hU0ADQ6C9-37" style="edgeStyle=orthogonalEdgeStyle;rounded=0;orthogonalLoop=1;jettySize=auto;html=1;exitX=0.5;exitY=1;exitDx=0;exitDy=0;entryX=0.5;entryY=0;entryDx=0;entryDy=0;" parent="1" source="zFfVcb5Bz67hU0ADQ6C9-34" target="zFfVcb5Bz67hU0ADQ6C9-36" edge="1">
          <mxGeometry relative="1" as="geometry" />
        </mxCell>
        <mxCell id="zFfVcb5Bz67hU0ADQ6C9-34" value="کاربر گزینه &quot;نمایش درخواست ها&quot; را انتخاب میکند" style="rounded=1;whiteSpace=wrap;html=1;fillColor=#f5f5f5;gradientColor=#b3b3b3;strokeColor=#666666;" parent="1" vertex="1">
          <mxGeometry x="1040.02" y="281.89" width="120" height="60" as="geometry" />
        </mxCell>
        <mxCell id="zFfVcb5Bz67hU0ADQ6C9-35" value="" style="endArrow=classic;html=1;rounded=0;exitX=0.956;exitY=0.187;exitDx=0;exitDy=0;exitPerimeter=0;entryX=0.441;entryY=0.043;entryDx=0;entryDy=0;entryPerimeter=0;" parent="1" source="zFfVcb5Bz67hU0ADQ6C9-29" target="zFfVcb5Bz67hU0ADQ6C9-34" edge="1">
          <mxGeometry width="50" height="50" relative="1" as="geometry">
            <mxPoint x="1291.9800000000002" y="229.9999999999999" as="sourcePoint" />
            <mxPoint x="1110.02" y="391.89" as="targetPoint" />
          </mxGeometry>
        </mxCell>
        <mxCell id="zFfVcb5Bz67hU0ADQ6C9-60" style="edgeStyle=orthogonalEdgeStyle;rounded=0;orthogonalLoop=1;jettySize=auto;html=1;exitX=0.5;exitY=1;exitDx=0;exitDy=0;" parent="1" source="zFfVcb5Bz67hU0ADQ6C9-36" target="zFfVcb5Bz67hU0ADQ6C9-44" edge="1">
          <mxGeometry relative="1" as="geometry" />
        </mxCell>
        <mxCell id="zFfVcb5Bz67hU0ADQ6C9-36" value="لیستی از درخواست های کاربر و نتایج آن نمایش داده میشود" style="rounded=1;whiteSpace=wrap;html=1;fillColor=#f5f5f5;gradientColor=#b3b3b3;strokeColor=#666666;" parent="1" vertex="1">
          <mxGeometry x="1040.02" y="391.89" width="120" height="60" as="geometry" />
        </mxCell>
        <mxCell id="zFfVcb5Bz67hU0ADQ6C9-40" style="edgeStyle=orthogonalEdgeStyle;rounded=0;orthogonalLoop=1;jettySize=auto;html=1;exitX=1;exitY=0.5;exitDx=0;exitDy=0;entryX=0.5;entryY=0;entryDx=0;entryDy=0;" parent="1" source="zFfVcb5Bz67hU0ADQ6C9-44" target="zFfVcb5Bz67hU0ADQ6C9-46" edge="1">
          <mxGeometry relative="1" as="geometry">
            <mxPoint x="1341.8700000000001" y="512.1521739130435" as="targetPoint" />
            <mxPoint x="1240" y="512.4999999999999" as="sourcePoint" />
          </mxGeometry>
        </mxCell>
        <mxCell id="zFfVcb5Bz67hU0ADQ6C9-41" value="دیدن درخواست خاص" style="edgeLabel;html=1;align=center;verticalAlign=middle;resizable=0;points=[];" parent="zFfVcb5Bz67hU0ADQ6C9-40" vertex="1" connectable="0">
          <mxGeometry x="-0.1563" relative="1" as="geometry">
            <mxPoint as="offset" />
          </mxGeometry>
        </mxCell>
        <mxCell id="zFfVcb5Bz67hU0ADQ6C9-42" style="edgeStyle=orthogonalEdgeStyle;rounded=0;orthogonalLoop=1;jettySize=auto;html=1;exitX=0;exitY=0.5;exitDx=0;exitDy=0;entryX=1.011;entryY=0.378;entryDx=0;entryDy=0;entryPerimeter=0;" parent="1" source="zFfVcb5Bz67hU0ADQ6C9-44" target="zFfVcb5Bz67hU0ADQ6C9-67" edge="1">
          <mxGeometry relative="1" as="geometry">
            <mxPoint x="1000" y="1140" as="targetPoint" />
            <Array as="points">
              <mxPoint x="1000" y="517" />
            </Array>
          </mxGeometry>
        </mxCell>
        <mxCell id="zFfVcb5Bz67hU0ADQ6C9-43" value="&lt;div&gt;کاربر تمایل &lt;br&gt;&lt;/div&gt;&lt;div&gt;به دیدن درخواست&lt;/div&gt;&lt;div&gt;خاصی ندارد&lt;br&gt;&lt;/div&gt;" style="edgeLabel;html=1;align=center;verticalAlign=middle;resizable=0;points=[];" parent="zFfVcb5Bz67hU0ADQ6C9-42" vertex="1" connectable="0">
          <mxGeometry x="-0.1015" y="1" relative="1" as="geometry">
            <mxPoint as="offset" />
          </mxGeometry>
        </mxCell>
        <mxCell id="zFfVcb5Bz67hU0ADQ6C9-44" value="" style="rhombus;whiteSpace=wrap;html=1;" parent="1" vertex="1">
          <mxGeometry x="1057.15" y="491.89" width="80" height="50" as="geometry" />
        </mxCell>
        <mxCell id="zFfVcb5Bz67hU0ADQ6C9-45" style="edgeStyle=orthogonalEdgeStyle;rounded=0;orthogonalLoop=1;jettySize=auto;html=1;exitX=0.5;exitY=1;exitDx=0;exitDy=0;entryX=0.5;entryY=0;entryDx=0;entryDy=0;" parent="1" source="zFfVcb5Bz67hU0ADQ6C9-46" target="zFfVcb5Bz67hU0ADQ6C9-48" edge="1">
          <mxGeometry relative="1" as="geometry" />
        </mxCell>
        <mxCell id="zFfVcb5Bz67hU0ADQ6C9-46" value="کاربر روی درخواست موردنظر خود کلیک میکند" style="rounded=1;whiteSpace=wrap;html=1;fillColor=#f5f5f5;gradientColor=#b3b3b3;strokeColor=#666666;" parent="1" vertex="1">
          <mxGeometry x="1281.8700000000001" y="557.5" width="120" height="60" as="geometry" />
        </mxCell>
        <mxCell id="zFfVcb5Bz67hU0ADQ6C9-48" value="جزئیات درخواست و نتیجه آن به کاربر نمایش داده میشود" style="rounded=1;whiteSpace=wrap;html=1;fillColor=#f5f5f5;gradientColor=#b3b3b3;strokeColor=#666666;" parent="1" vertex="1">
          <mxGeometry x="1281.8700000000001" y="667.5" width="120" height="60" as="geometry" />
        </mxCell>
        <mxCell id="zFfVcb5Bz67hU0ADQ6C9-49" style="edgeStyle=orthogonalEdgeStyle;rounded=0;orthogonalLoop=1;jettySize=auto;html=1;exitX=0;exitY=0.5;exitDx=0;exitDy=0;" parent="1" source="zFfVcb5Bz67hU0ADQ6C9-53" target="zFfVcb5Bz67hU0ADQ6C9-55" edge="1">
          <mxGeometry relative="1" as="geometry" />
        </mxCell>
        <mxCell id="zFfVcb5Bz67hU0ADQ6C9-50" value="قبول" style="edgeLabel;html=1;align=center;verticalAlign=middle;resizable=0;points=[];" parent="zFfVcb5Bz67hU0ADQ6C9-49" vertex="1" connectable="0">
          <mxGeometry x="-0.1883" y="-1" relative="1" as="geometry">
            <mxPoint as="offset" />
          </mxGeometry>
        </mxCell>
        <mxCell id="zFfVcb5Bz67hU0ADQ6C9-51" style="edgeStyle=orthogonalEdgeStyle;rounded=0;orthogonalLoop=1;jettySize=auto;html=1;exitX=1;exitY=0.5;exitDx=0;exitDy=0;" parent="1" source="zFfVcb5Bz67hU0ADQ6C9-53" edge="1">
          <mxGeometry relative="1" as="geometry">
            <mxPoint x="1359.0200000000002" y="861.89" as="targetPoint" />
          </mxGeometry>
        </mxCell>
        <mxCell id="zFfVcb5Bz67hU0ADQ6C9-52" value="رد" style="edgeLabel;html=1;align=center;verticalAlign=middle;resizable=0;points=[];" parent="zFfVcb5Bz67hU0ADQ6C9-51" vertex="1" connectable="0">
          <mxGeometry x="-0.1062" relative="1" as="geometry">
            <mxPoint as="offset" />
          </mxGeometry>
        </mxCell>
        <mxCell id="zFfVcb5Bz67hU0ADQ6C9-53" value="" style="rhombus;whiteSpace=wrap;html=1;" parent="1" vertex="1">
          <mxGeometry x="1199.0200000000002" y="801.89" width="80" height="50" as="geometry" />
        </mxCell>
        <mxCell id="zFfVcb5Bz67hU0ADQ6C9-66" style="edgeStyle=orthogonalEdgeStyle;rounded=0;orthogonalLoop=1;jettySize=auto;html=1;exitX=0.5;exitY=1;exitDx=0;exitDy=0;entryX=0.5;entryY=0;entryDx=0;entryDy=0;" parent="1" source="zFfVcb5Bz67hU0ADQ6C9-55" target="zFfVcb5Bz67hU0ADQ6C9-65" edge="1">
          <mxGeometry relative="1" as="geometry" />
        </mxCell>
        <mxCell id="zFfVcb5Bz67hU0ADQ6C9-55" value="کاربر پرداخت درون برنامه ای را انجام میدهد" style="rounded=1;whiteSpace=wrap;html=1;fillColor=#f5f5f5;gradientColor=#b3b3b3;strokeColor=#666666;" parent="1" vertex="1">
          <mxGeometry x="1037.15" y="861.89" width="120" height="60" as="geometry" />
        </mxCell>
        <mxCell id="zFfVcb5Bz67hU0ADQ6C9-63" style="edgeStyle=orthogonalEdgeStyle;rounded=0;orthogonalLoop=1;jettySize=auto;html=1;exitX=0.5;exitY=1;exitDx=0;exitDy=0;entryX=0.5;entryY=0;entryDx=0;entryDy=0;" parent="1" source="zFfVcb5Bz67hU0ADQ6C9-61" target="zFfVcb5Bz67hU0ADQ6C9-62" edge="1">
          <mxGeometry relative="1" as="geometry" />
        </mxCell>
        <mxCell id="zFfVcb5Bz67hU0ADQ6C9-61" value="در نتایج درخواست کاربر پیغام &quot;رد درخواست&quot; نمایش داده میشود" style="rounded=1;whiteSpace=wrap;html=1;fillColor=#f5f5f5;gradientColor=#b3b3b3;strokeColor=#666666;" parent="1" vertex="1">
          <mxGeometry x="1290" y="861.89" width="120" height="60" as="geometry" />
        </mxCell>
        <mxCell id="zFfVcb5Bz67hU0ADQ6C9-62" value="" style="shape=sumEllipse;perimeter=ellipsePerimeter;html=1;backgroundOutline=1;" parent="1" vertex="1">
          <mxGeometry x="1335" y="990" width="30" height="30" as="geometry" />
        </mxCell>
        <mxCell id="zFfVcb5Bz67hU0ADQ6C9-64" value="ارسال با موفقیت انجام میشود" style="rounded=1;whiteSpace=wrap;html=1;fillColor=#f5f5f5;gradientColor=#b3b3b3;strokeColor=#666666;" parent="1" vertex="1">
          <mxGeometry x="730.0000000000001" y="940" width="120" height="60" as="geometry" />
        </mxCell>
        <mxCell id="zFfVcb5Bz67hU0ADQ6C9-65" value="ارتباط کاربر و وکیل با موفقیت برقرار میشود" style="rounded=1;whiteSpace=wrap;html=1;fillColor=#f5f5f5;gradientColor=#b3b3b3;strokeColor=#666666;" parent="1" vertex="1">
          <mxGeometry x="1037.15" y="990" width="120" height="60" as="geometry" />
        </mxCell>
        <mxCell id="zFfVcb5Bz67hU0ADQ6C9-67" value="" style="html=1;points=[];perimeter=orthogonalPerimeter;fillColor=strokeColor;direction=south;" parent="1" vertex="1">
          <mxGeometry x="673.65" y="1260" width="525.37" height="5" as="geometry" />
        </mxCell>
        <mxCell id="zFfVcb5Bz67hU0ADQ6C9-68" style="edgeStyle=orthogonalEdgeStyle;rounded=0;orthogonalLoop=1;jettySize=auto;html=1;exitX=0.5;exitY=1;exitDx=0;exitDy=0;entryX=0.122;entryY=0.194;entryDx=0;entryDy=0;entryPerimeter=0;" parent="1" source="zFfVcb5Bz67hU0ADQ6C9-65" target="zFfVcb5Bz67hU0ADQ6C9-67" edge="1">
          <mxGeometry relative="1" as="geometry" />
        </mxCell>
        <mxCell id="zFfVcb5Bz67hU0ADQ6C9-69" style="edgeStyle=orthogonalEdgeStyle;rounded=0;orthogonalLoop=1;jettySize=auto;html=1;exitX=0.5;exitY=1;exitDx=0;exitDy=0;entryX=-0.1;entryY=0.661;entryDx=0;entryDy=0;entryPerimeter=0;" parent="1" source="zFfVcb5Bz67hU0ADQ6C9-64" target="zFfVcb5Bz67hU0ADQ6C9-67" edge="1">
          <mxGeometry relative="1" as="geometry" />
        </mxCell>
        <mxCell id="zFfVcb5Bz67hU0ADQ6C9-70" value="" style="endArrow=classic;html=1;rounded=0;exitX=1.456;exitY=0.492;exitDx=0;exitDy=0;exitPerimeter=0;entryX=0.5;entryY=0;entryDx=0;entryDy=0;" parent="1" source="zFfVcb5Bz67hU0ADQ6C9-67" target="zFfVcb5Bz67hU0ADQ6C9-27" edge="1">
          <mxGeometry width="50" height="50" relative="1" as="geometry">
            <mxPoint x="930" y="1042.5" as="sourcePoint" />
            <mxPoint x="980" y="992.5" as="targetPoint" />
          </mxGeometry>
        </mxCell>
        <mxCell id="zFfVcb5Bz67hU0ADQ6C9-71" value="" style="html=1;points=[];perimeter=orthogonalPerimeter;fillColor=strokeColor;direction=south;" parent="1" vertex="1">
          <mxGeometry x="1170" y="770" width="330" height="5" as="geometry" />
        </mxCell>
        <mxCell id="zFfVcb5Bz67hU0ADQ6C9-72" style="edgeStyle=orthogonalEdgeStyle;rounded=0;orthogonalLoop=1;jettySize=auto;html=1;exitX=0.5;exitY=1;exitDx=0;exitDy=0;entryX=0.733;entryY=0.479;entryDx=0;entryDy=0;entryPerimeter=0;" parent="1" source="zFfVcb5Bz67hU0ADQ6C9-48" target="zFfVcb5Bz67hU0ADQ6C9-71" edge="1">
          <mxGeometry relative="1" as="geometry" />
        </mxCell>
        <mxCell id="zFfVcb5Bz67hU0ADQ6C9-73" value="" style="endArrow=classic;html=1;rounded=0;exitX=0.956;exitY=0.793;exitDx=0;exitDy=0;exitPerimeter=0;entryX=0.5;entryY=0;entryDx=0;entryDy=0;" parent="1" source="zFfVcb5Bz67hU0ADQ6C9-71" target="zFfVcb5Bz67hU0ADQ6C9-53" edge="1">
          <mxGeometry width="50" height="50" relative="1" as="geometry">
            <mxPoint x="930" y="850" as="sourcePoint" />
            <mxPoint x="980" y="800" as="targetPoint" />
          </mxGeometry>
        </mxCell>
        <mxCell id="zFfVcb5Bz67hU0ADQ6C9-78" style="edgeStyle=orthogonalEdgeStyle;rounded=0;orthogonalLoop=1;jettySize=auto;html=1;exitX=0.5;exitY=1;exitDx=0;exitDy=0;entryX=0.5;entryY=0;entryDx=0;entryDy=0;" parent="1" source="zFfVcb5Bz67hU0ADQ6C9-74" target="zFfVcb5Bz67hU0ADQ6C9-77" edge="1">
          <mxGeometry relative="1" as="geometry" />
        </mxCell>
        <mxCell id="zFfVcb5Bz67hU0ADQ6C9-74" value="کاربر درخواست موردنظر را لغو میکند" style="rounded=1;whiteSpace=wrap;html=1;fillColor=#f5f5f5;gradientColor=#b3b3b3;strokeColor=#666666;" parent="1" vertex="1">
          <mxGeometry x="1440" y="870" width="120" height="60" as="geometry" />
        </mxCell>
        <mxCell id="zFfVcb5Bz67hU0ADQ6C9-75" value="" style="endArrow=classic;html=1;rounded=0;exitX=1.622;exitY=0.059;exitDx=0;exitDy=0;exitPerimeter=0;entryX=0.33;entryY=-0.05;entryDx=0;entryDy=0;entryPerimeter=0;" parent="1" source="zFfVcb5Bz67hU0ADQ6C9-71" target="zFfVcb5Bz67hU0ADQ6C9-74" edge="1">
          <mxGeometry width="50" height="50" relative="1" as="geometry">
            <mxPoint x="930" y="850" as="sourcePoint" />
            <mxPoint x="980" y="800" as="targetPoint" />
          </mxGeometry>
        </mxCell>
        <mxCell id="zFfVcb5Bz67hU0ADQ6C9-80" style="edgeStyle=orthogonalEdgeStyle;rounded=0;orthogonalLoop=1;jettySize=auto;html=1;exitX=0.5;exitY=1;exitDx=0;exitDy=0;entryX=0.5;entryY=0;entryDx=0;entryDy=0;" parent="1" source="zFfVcb5Bz67hU0ADQ6C9-77" target="zFfVcb5Bz67hU0ADQ6C9-79" edge="1">
          <mxGeometry relative="1" as="geometry" />
        </mxCell>
        <mxCell id="zFfVcb5Bz67hU0ADQ6C9-77" value="پیغام رد درخواست به وکیل ارسال میشود" style="rounded=1;whiteSpace=wrap;html=1;fillColor=#f5f5f5;gradientColor=#b3b3b3;strokeColor=#666666;" parent="1" vertex="1">
          <mxGeometry x="1440" y="990" width="120" height="60" as="geometry" />
        </mxCell>
        <mxCell id="zFfVcb5Bz67hU0ADQ6C9-79" value="تایم نوبت لغو شده در برنامه وکیل آزاد میشود" style="rounded=1;whiteSpace=wrap;html=1;fillColor=#f5f5f5;gradientColor=#b3b3b3;strokeColor=#666666;" parent="1" vertex="1">
          <mxGeometry x="1440" y="1092.5" width="120" height="60" as="geometry" />
        </mxCell>
        <mxCell id="zFfVcb5Bz67hU0ADQ6C9-81" style="edgeStyle=orthogonalEdgeStyle;rounded=0;orthogonalLoop=1;jettySize=auto;html=1;exitX=0.5;exitY=1;exitDx=0;exitDy=0;entryX=-0.6;entryY=0.062;entryDx=0;entryDy=0;entryPerimeter=0;" parent="1" source="zFfVcb5Bz67hU0ADQ6C9-79" target="zFfVcb5Bz67hU0ADQ6C9-67" edge="1">
          <mxGeometry relative="1" as="geometry" />
        </mxCell>
        <mxCell id="3hhfJLfpL5k9bPC-id2U-4" style="edgeStyle=orthogonalEdgeStyle;rounded=0;orthogonalLoop=1;jettySize=auto;html=1;exitX=0.5;exitY=1;exitDx=0;exitDy=0;entryX=0.5;entryY=0;entryDx=0;entryDy=0;" edge="1" parent="1" source="3hhfJLfpL5k9bPC-id2U-1" target="3hhfJLfpL5k9bPC-id2U-3">
          <mxGeometry relative="1" as="geometry" />
        </mxCell>
        <mxCell id="3hhfJLfpL5k9bPC-id2U-1" value="کاربر تایم های خالی وکیل را بررسی میکند" style="rounded=1;whiteSpace=wrap;html=1;fillColor=#f5f5f5;gradientColor=#b3b3b3;strokeColor=#666666;" vertex="1" parent="1">
          <mxGeometry x="610.0000000000001" y="470" width="120" height="60" as="geometry" />
        </mxCell>
        <mxCell id="3hhfJLfpL5k9bPC-id2U-2" style="edgeStyle=orthogonalEdgeStyle;rounded=0;orthogonalLoop=1;jettySize=auto;html=1;exitX=0.5;exitY=1;exitDx=0;exitDy=0;entryX=0.575;entryY=-0.033;entryDx=0;entryDy=0;entryPerimeter=0;" edge="1" parent="1" source="zFfVcb5Bz67hU0ADQ6C9-9" target="3hhfJLfpL5k9bPC-id2U-1">
          <mxGeometry relative="1" as="geometry" />
        </mxCell>
        <mxCell id="3hhfJLfpL5k9bPC-id2U-5" style="edgeStyle=orthogonalEdgeStyle;rounded=0;orthogonalLoop=1;jettySize=auto;html=1;exitX=0;exitY=0.5;exitDx=0;exitDy=0;" edge="1" parent="1" source="3hhfJLfpL5k9bPC-id2U-3">
          <mxGeometry relative="1" as="geometry">
            <mxPoint x="450" y="510" as="targetPoint" />
          </mxGeometry>
        </mxCell>
        <mxCell id="3hhfJLfpL5k9bPC-id2U-6" value="پر بودن تمام نوبت ها" style="edgeLabel;html=1;align=center;verticalAlign=middle;resizable=0;points=[];" vertex="1" connectable="0" parent="3hhfJLfpL5k9bPC-id2U-5">
          <mxGeometry x="-0.2434" y="-1" relative="1" as="geometry">
            <mxPoint as="offset" />
          </mxGeometry>
        </mxCell>
        <mxCell id="3hhfJLfpL5k9bPC-id2U-9" style="edgeStyle=orthogonalEdgeStyle;rounded=0;orthogonalLoop=1;jettySize=auto;html=1;exitX=1;exitY=0.5;exitDx=0;exitDy=0;" edge="1" parent="1" source="3hhfJLfpL5k9bPC-id2U-3">
          <mxGeometry relative="1" as="geometry">
            <mxPoint x="790" y="680" as="targetPoint" />
          </mxGeometry>
        </mxCell>
        <mxCell id="3hhfJLfpL5k9bPC-id2U-10" value="وجود تایم خالی" style="edgeLabel;html=1;align=center;verticalAlign=middle;resizable=0;points=[];" vertex="1" connectable="0" parent="3hhfJLfpL5k9bPC-id2U-9">
          <mxGeometry x="-0.3252" relative="1" as="geometry">
            <mxPoint y="1" as="offset" />
          </mxGeometry>
        </mxCell>
        <mxCell id="3hhfJLfpL5k9bPC-id2U-3" value="" style="rhombus;whiteSpace=wrap;html=1;" vertex="1" parent="1">
          <mxGeometry x="635.0000000000001" y="567.5" width="80" height="50" as="geometry" />
        </mxCell>
        <mxCell id="3hhfJLfpL5k9bPC-id2U-8" style="edgeStyle=orthogonalEdgeStyle;rounded=0;orthogonalLoop=1;jettySize=auto;html=1;exitX=0.5;exitY=0;exitDx=0;exitDy=0;entryX=0;entryY=0.5;entryDx=0;entryDy=0;" edge="1" parent="1" source="3hhfJLfpL5k9bPC-id2U-7" target="zFfVcb5Bz67hU0ADQ6C9-7">
          <mxGeometry relative="1" as="geometry" />
        </mxCell>
        <mxCell id="3hhfJLfpL5k9bPC-id2U-7" value="پیغام &quot; نبود تایم خالی&quot; به کاربر نمایش داده میشود" style="rounded=1;whiteSpace=wrap;html=1;fillColor=#f5f5f5;gradientColor=#b3b3b3;strokeColor=#666666;" vertex="1" parent="1">
          <mxGeometry x="390.0000000000001" y="450" width="120" height="60" as="geometry" />
        </mxCell>
        <mxCell id="3hhfJLfpL5k9bPC-id2U-12" style="edgeStyle=orthogonalEdgeStyle;rounded=0;orthogonalLoop=1;jettySize=auto;html=1;exitX=0.5;exitY=1;exitDx=0;exitDy=0;entryX=0.5;entryY=0;entryDx=0;entryDy=0;" edge="1" parent="1" source="3hhfJLfpL5k9bPC-id2U-11" target="zFfVcb5Bz67hU0ADQ6C9-11">
          <mxGeometry relative="1" as="geometry" />
        </mxCell>
        <mxCell id="3hhfJLfpL5k9bPC-id2U-11" value="کاربر تایم خالی موردنظر خود را انتخاب میکند" style="rounded=1;whiteSpace=wrap;html=1;fillColor=#f5f5f5;gradientColor=#b3b3b3;strokeColor=#666666;" vertex="1" parent="1">
          <mxGeometry x="730.0000000000001" y="680" width="120" height="60" as="geometry" />
        </mxCell>
      </root>
    </mxGraphModel>
  </diagram>
</mxfile>
